# xmcd
#
# Track frame offsets: 
#        150
#        11506
#        25507
#        34983
#        44043
#        63538
#        82347
#        96480
#        114398
#        125816
#        136913
#        147338
#
# Disc length: 2147 seconds
#
# Revision: 1
# Processed by: cddbd v1.5.2PL0 Copyright (c) Steve Scherf et al.
# Submitted via: ExactAudioCopyFreeDBPlugin 1.0
#
DISCID=b108610c
DTITLE=Barrence Whitfield - Under the Savage Sky
DYEAR=2015
DGENRE=Rhythm and Blues
TTITLE0=Willow
TTITLE1=I'm a Full Grown Man
TTITLE2=The Claw
TTITLE3=Rock and Roll Baby
TTITLE4=Adjunct Street
TTITLE5=The Wolf Pack
TTITLE6=Incarceration Casserole
TTITLE7=Angry Hands
TTITLE8=Bad News Perfume
TTITLE9=Katy Didn't
TTITLE10=I'm a Good Man
TTITLE11=Full Moon in the Daylight Sky
EXTD=YEAR: 2015
EXTT0=
EXTT1=
EXTT2=
EXTT3=
EXTT4=
EXTT5=
EXTT6=
EXTT7=
EXTT8=
EXTT9=
EXTT10=
EXTT11=
PLAYORDER=
